<svg width="47" height="46" viewBox="0 0 47 46" fill="none" xmlns="http://www.w3.org/2000/svg">
<path fill-rule="evenodd" clip-rule="evenodd" d="M32.398 19.2139C32.398 20.1666 33.1611 20.9288 34.1149 20.9288C35.0687 20.9288 35.8508 20.1666 35.8508 19.2139C35.8508 18.2611 35.0687 17.4799 34.1149 17.4799C33.1611 17.4799 32.398 18.2611 32.398 19.2139ZM28.6973 30.723C27.3429 32.0759 25.4735 32.9144 23.4133 32.9144C21.4103 32.9144 19.5408 32.1331 18.1101 30.723C16.6985 29.2939 15.9164 27.4265 15.9164 25.4258C15.8973 23.4441 16.6794 21.5767 18.091 20.1476C19.5217 18.7185 21.4103 17.9372 23.4133 17.9372C25.4162 17.9372 27.3048 18.7185 28.7164 20.1285C30.128 21.5576 30.9102 23.4441 30.9102 25.4258C30.8911 27.5028 30.0517 29.3701 28.6973 30.723ZM23.4135 20.7954C22.1735 20.7954 21.0099 21.2717 20.1133 22.1673C19.2358 23.0439 18.7589 24.2062 18.778 25.4067V25.4257C18.778 26.6643 19.2549 27.8266 20.1324 28.7032C21.0099 29.5797 22.1735 30.0561 23.4135 30.0561C25.9697 30.0561 28.0299 27.9791 28.049 25.4257C28.049 24.1871 27.5721 23.0248 26.6946 22.1483C25.8171 21.2717 24.6534 20.7954 23.4135 20.7954Z" fill="black"/>
<path opacity="0.4" d="M33.7909 11.8966L33.6001 11.4774C33.0851 10.3912 32.4937 9.13361 32.1313 8.40952C31.2538 6.69458 29.7467 5.74183 27.8964 5.72278H18.9115C17.0611 5.74183 15.5732 6.69458 14.6957 8.40952C14.3142 9.17172 13.6656 10.5437 13.1315 11.6679L13.017 11.8966C12.9598 12.049 12.8072 12.1252 12.6546 12.1252C8.05724 12.1252 4.3374 15.86 4.3374 20.4332V31.7518C4.3374 36.325 8.05724 40.0597 12.6546 40.0597H34.1724C38.7507 40.0597 42.4896 36.325 42.4896 31.7518V20.4332C42.4896 15.86 38.7507 12.1252 34.1724 12.1252C34.0007 12.1252 33.8672 12.03 33.7909 11.8966Z" fill="black"/>
</svg>
