<svg width="64" height="64" viewBox="0 0 64 64" fill="none" xmlns="http://www.w3.org/2000/svg">
<path d="M47.4932 11.9199C47.2799 11.9199 47.0665 11.8666 46.8799 11.7599C41.7599 9.11992 37.3332 7.99992 32.0265 7.99992C26.7465 7.99992 21.7332 9.25325 17.1732 11.7599C16.5332 12.1066 15.7332 11.8666 15.3599 11.2266C15.0132 10.5866 15.2532 9.75992 15.8932 9.41325C20.8532 6.71992 26.2932 5.33325 32.0265 5.33325C37.7065 5.33325 42.6665 6.58659 48.1065 9.38659C48.7732 9.73325 49.0132 10.5333 48.6665 11.1733C48.4265 11.6533 47.9732 11.9199 47.4932 11.9199ZM9.33321 25.9199C9.06655 25.9199 8.79988 25.8399 8.55988 25.6799C7.94655 25.2533 7.81321 24.4266 8.23988 23.8133C10.8799 20.0799 14.2399 17.1466 18.2399 15.0933C26.6132 10.7733 37.3332 10.7466 45.7332 15.0666C49.7332 17.1199 53.0932 20.0266 55.7332 23.7333C56.1599 24.3199 56.0265 25.1733 55.4132 25.5999C54.7999 26.0266 53.9732 25.8933 53.5465 25.2799C51.1465 21.9199 48.1065 19.2799 44.5065 17.4399C36.8532 13.5199 27.0665 13.5199 19.4399 17.4666C15.8132 19.3333 12.7732 21.9999 10.3732 25.3599C10.1599 25.7333 9.75988 25.9199 9.33321 25.9199ZM25.9999 58.1066C25.6532 58.1066 25.3065 57.9733 25.0665 57.7066C22.7465 55.3866 21.4932 53.8933 19.7065 50.6666C17.8665 47.3866 16.9065 43.3866 16.9065 39.0933C16.9065 31.1733 23.6799 24.7199 31.9999 24.7199C40.3199 24.7199 47.0932 31.1733 47.0932 39.0933C47.0932 39.8399 46.5065 40.4266 45.7599 40.4266C45.0132 40.4266 44.4265 39.8399 44.4265 39.0933C44.4265 32.6399 38.8532 27.3866 31.9999 27.3866C25.1465 27.3866 19.5732 32.6399 19.5732 39.0933C19.5732 42.9333 20.4265 46.4799 22.0532 49.3599C23.7599 52.4266 24.9332 53.7333 26.9865 55.8133C27.4932 56.3466 27.4932 57.1733 26.9865 57.7066C26.6932 57.9733 26.3465 58.1066 25.9999 58.1066ZM45.1199 53.1733C41.9465 53.1733 39.1465 52.3733 36.8532 50.7999C32.8799 48.1066 30.5065 43.7333 30.5065 39.0933C30.5065 38.3466 31.0932 37.7599 31.8399 37.7599C32.5865 37.7599 33.1732 38.3466 33.1732 39.0933C33.1732 42.8533 35.0932 46.3999 38.3465 48.5866C40.2399 49.8666 42.4532 50.4799 45.1199 50.4799C45.7599 50.4799 46.8265 50.3999 47.8932 50.2133C48.6132 50.0799 49.3065 50.5599 49.4399 51.3066C49.5732 52.0266 49.0932 52.7199 48.3465 52.8533C46.8265 53.1466 45.4932 53.1733 45.1199 53.1733ZM39.7599 58.6666C39.6532 58.6666 39.5199 58.6399 39.4132 58.6133C35.1732 57.4399 32.3999 55.8666 29.4932 53.0133C25.7599 49.3066 23.7065 44.3733 23.7065 39.0933C23.7065 34.7733 27.3865 31.2533 31.9199 31.2533C36.4532 31.2533 40.1332 34.7733 40.1332 39.0933C40.1332 41.9466 42.6132 44.2666 45.6799 44.2666C48.7465 44.2666 51.2265 41.9466 51.2265 39.0933C51.2265 29.0399 42.5599 20.8799 31.8932 20.8799C24.3199 20.8799 17.3865 25.0933 14.2665 31.6266C13.2265 33.7866 12.6932 36.3199 12.6932 39.0933C12.6932 41.1733 12.8799 44.4533 14.4799 48.7199C14.7465 49.4133 14.3999 50.1866 13.7065 50.4266C13.0132 50.6933 12.2399 50.3199 11.9999 49.6533C10.6932 46.1599 10.0532 42.6933 10.0532 39.0933C10.0532 35.8933 10.6665 32.9866 11.8665 30.4533C15.4132 23.0133 23.2799 18.1866 31.8932 18.1866C44.0265 18.1866 53.8932 27.5466 53.8932 39.0666C53.8932 43.3866 50.2132 46.9066 45.6799 46.9066C41.1465 46.9066 37.4665 43.3866 37.4665 39.0666C37.4665 36.2133 34.9865 33.8933 31.9199 33.8933C28.8532 33.8933 26.3732 36.2133 26.3732 39.0666C26.3732 43.6266 28.1332 47.8933 31.3599 51.0933C33.8932 53.5999 36.3199 54.9866 40.0799 56.0266C40.7999 56.2133 41.1999 56.9599 41.0132 57.6533C40.8799 58.2666 40.3199 58.6666 39.7599 58.6666Z" fill="black"/>
</svg>
