<svg width="41" height="41" viewBox="0 0 41 41" fill="none" xmlns="http://www.w3.org/2000/svg">
<path opacity="0.4" d="M27.9022 37.5834H13.0967C7.30669 37.5834 3.41699 33.5225 3.41699 27.4774V13.5245C3.41699 7.47936 7.30669 3.41675 13.0967 3.41675H27.9039C33.694 3.41675 37.5837 7.47936 37.5837 13.5245V27.4774C37.5837 33.5225 33.694 37.5834 27.9022 37.5834Z" fill="black"/>
<path fill-rule="evenodd" clip-rule="evenodd" d="M19.2105 14.8198C19.2105 17.1602 17.3057 19.065 14.9653 19.065C12.6231 19.065 10.72 17.1602 10.72 14.8198C10.72 12.4794 12.6231 10.5729 14.9653 10.5729C17.3057 10.5729 19.2105 12.4794 19.2105 14.8198ZM33.1422 24.0664C33.5402 24.4525 33.8255 24.8932 34.0134 25.363C34.5823 26.7844 34.2868 28.4927 33.6786 29.9004C32.9577 31.5762 31.5774 32.8421 29.8383 33.3956C29.0661 33.6433 28.2564 33.7492 27.4483 33.7492H13.1308C11.706 33.7492 10.4453 33.4178 9.41173 32.796C8.76427 32.4065 8.64981 31.5096 9.12986 30.9254C9.93277 29.9516 10.7254 28.9744 11.5249 27.9887C13.0488 26.1027 14.0755 25.5561 15.2166 26.0361C15.6796 26.2343 16.1443 26.5332 16.6226 26.8476C17.897 27.6915 19.6686 28.8497 22.0021 27.5924C23.5973 26.7202 24.5232 25.2277 25.3291 23.9286L25.3454 23.9024C25.3996 23.8155 25.4534 23.7286 25.507 23.642C25.781 23.1991 26.0509 22.763 26.3567 22.3615C26.7359 21.8644 28.1436 20.3098 29.963 21.4168C31.1229 22.1138 32.0984 23.0568 33.1422 24.0664Z" fill="black"/>
</svg>
