<svg width="106" height="68" viewBox="0 0 106 68" fill="none" xmlns="http://www.w3.org/2000/svg">
<path d="M52.8919 0.0821714L74.3556 14.4358L60.1097 14.4358L52.8306 9.53863L15.4887 34.7416L0.483582 34.7416L24.4003 18.8872V3.79892H32.7578V13.3469L52.7691 0.0814813V0L52.8302 0.0409192L52.8919 2.71417e-05V0.0821714Z" fill="#3062C8"/>
<path d="M24.2103 34.5517L53.2713 15.0056V15.3236L105.507 50.6258L98.0986 50.6258V68H90.8808V50.0702L53.1786 24.7577L39.2154 34.5517L24.2103 34.5517Z" fill="#3062C8"/>
<path d="M52.1322 41.7877H44.9143V48.6257H52.1322V41.7877Z" fill="#3062C8"/>
<path d="M60.8696 41.7877H53.6517V48.6257H60.8696V41.7877Z" fill="#3062C8"/>
<path d="M53.6517 50.5252H60.8696V57.3632H53.6517V50.5252Z" fill="#3062C8"/>
<path d="M44.9143 50.5252H52.1322V57.3632H44.9143V50.5252Z" fill="#3062C8"/>
</svg>
